<svg width="18" height="14" viewBox="0 0 18 14" fill="none" xmlns="http://www.w3.org/2000/svg">
<path d="M15.667 0.333252H2.33366C1.41699 0.333252 0.675326 1.08325 0.675326 1.99992L0.666992 11.9999C0.666992 12.9166 1.41699 13.6666 2.33366 13.6666H15.667C16.5837 13.6666 17.3337 12.9166 17.3337 11.9999V1.99992C17.3337 1.08325 16.5837 0.333252 15.667 0.333252ZM15.3337 3.87492L9.44199 7.55825C9.17533 7.72492 8.82533 7.72492 8.55866 7.55825L2.66699 3.87492C2.58343 3.82801 2.51026 3.76464 2.4519 3.68863C2.39354 3.61262 2.35121 3.52557 2.32747 3.43273C2.30373 3.33989 2.29908 3.2432 2.31379 3.14851C2.3285 3.05382 2.36227 2.9631 2.41306 2.88184C2.46385 2.80058 2.5306 2.73046 2.60926 2.67575C2.68793 2.62103 2.77689 2.58284 2.87074 2.5635C2.96459 2.54416 3.06139 2.54406 3.15529 2.56321C3.24918 2.58236 3.33821 2.62036 3.41699 2.67492L9.00033 6.16658L14.5837 2.67492C14.6624 2.62036 14.7515 2.58236 14.8454 2.56321C14.9393 2.54406 15.0361 2.54416 15.1299 2.5635C15.2238 2.58284 15.3127 2.62103 15.3914 2.67575C15.4701 2.73046 15.5368 2.80058 15.5876 2.88184C15.6384 2.9631 15.6722 3.05382 15.6869 3.14851C15.7016 3.2432 15.6969 3.33989 15.6732 3.43273C15.6494 3.52557 15.6071 3.61262 15.5488 3.68863C15.4904 3.76464 15.4172 3.82801 15.3337 3.87492Z" fill="#BDBDBD"/>
</svg>
