<svg width="8" height="8" viewBox="0 0 8 8" fill="none" xmlns="http://www.w3.org/2000/svg">
<path fill-rule="evenodd" clip-rule="evenodd" d="M3.99968 0.333344C4.12656 0.333344 4.24243 0.405368 4.29859 0.519136L5.2511 2.44883L7.38123 2.76018C7.50675 2.77853 7.61097 2.86653 7.6501 2.9872C7.68923 3.10787 7.65647 3.24029 7.56559 3.3288L6.02452 4.8298L6.38822 6.95033C6.40967 7.07539 6.35825 7.20179 6.2556 7.27636C6.15294 7.35094 6.01684 7.36076 5.90453 7.3017L3.99968 6.29996L2.09483 7.3017C1.98253 7.36076 1.84643 7.35094 1.74377 7.27636C1.64111 7.20179 1.5897 7.07539 1.61115 6.95033L1.97484 4.8298L0.433773 3.3288C0.342901 3.24029 0.310143 3.10787 0.349269 2.9872C0.388395 2.86653 0.492621 2.77853 0.618141 2.76018L2.74826 2.44883L3.70078 0.519136C3.75694 0.405368 3.87281 0.333344 3.99968 0.333344ZM3.99968 1.41976L3.26859 2.90089C3.22007 2.99917 3.12634 3.06732 3.01789 3.08317L1.38249 3.32221L2.56559 4.47456C2.64422 4.55114 2.68011 4.66152 2.66155 4.76969L2.38241 6.39724L3.84453 5.62832C3.94166 5.57724 4.05771 5.57724 4.15483 5.62832L5.61696 6.39723L5.33781 4.76969C5.31926 4.66152 5.35515 4.55114 5.43377 4.47456L6.61688 3.32221L4.98147 3.08317C4.87302 3.06732 4.77929 2.99917 4.73078 2.90089L3.99968 1.41976Z" fill="#F2994A"/>
<path d="M2.33333 5L1 3L3 2.66667L4 1L5 2.66667L7 3.33333L5.66667 4.66667L6 7L4 6L2 7L2.33333 5Z" fill="#F2994A"/>
</svg>
